<svg xmlns="http://www.w3.org/2000/svg" xmlns:xlink="http://www.w3.org/1999/xlink" width="500" height="500" viewBox="0 0 500 500">
  <defs>
    <radialGradient id="radial-gradient" cx="0.5" cy="0.5" r="0.313" gradientTransform="matrix(-0.835, 0.55, -1.931, -2.935, 1.883, 1.693)" gradientUnits="objectBoundingBox">
      <stop offset="0" stop-color="#e05050">
        <animate attributeName="stop-color" values="#fec000;#e05050;#fec000" dur="1s" repeatCount="indefinite" />
      </stop>
      <stop offset="1" stop-color="#fec000">
        <animate attributeName="stop-color" values="#e05050;#fec000;#e05050" dur="1s" repeatCount="indefinite" />
      </stop>
    </radialGradient>
    <radialGradient id="radial-gradient-2" cx="0.5" cy="0.5" r="0.5" gradientUnits="objectBoundingBox">
      <stop offset="0" stop-color="#6da3ec"/>
      <stop offset="1" stop-color="#336ebb"/>
    </radialGradient>
    <clipPath id="clip-Logo">
      <rect width="500" height="500"/>
    </clipPath>
  </defs>
  <g id="Logo" clip-path="url(#clip-Logo)">
    <g id="Group_6" data-name="Group 6" transform="translate(-71 -101)">
      <path id="Union_2" data-name="Union 2" d="M250,446.426A139.431,139.431,0,0,1,140.17,500C62.756,500,0,436.648,0,358.5S62.756,217,140.17,217A139.432,139.432,0,0,1,250,270.572,139.43,139.43,0,0,1,359.83,217C437.243,217,500,280.351,500,358.5S437.243,500,359.83,500A139.43,139.43,0,0,1,250,446.426Z" transform="translate(71 9.001)" fill="url(#radial-gradient)"/>
      <g id="Union_3" data-name="Union 3" transform="translate(126 272)" fill="url(#radial-gradient-2)">
        <path d="M 308.4443054199219 190.4999847412109 C 302.949951171875 190.4999847412109 297.4591064453125 189.8518371582031 292.1242065429688 188.5735321044922 C 286.9241943359375 187.3275299072266 281.8089599609375 185.4681396484375 276.9205627441406 183.0470275878906 C 272.1192016601562 180.6690368652344 267.4879150390625 177.7254333496094 263.1552124023438 174.2978820800781 C 258.862060546875 170.9016418457031 254.8246002197266 167.0008392333984 251.1550445556641 162.7038879394531 C 247.4842529296875 158.4054870605469 244.1513977050781 153.6753845214844 241.2490997314453 148.6448822021484 C 238.3182067871094 143.5648803710938 235.8007965087891 138.1338806152344 233.7667999267578 132.5027313232422 C 231.6947937011719 126.7664337158203 230.1034545898438 120.7632827758789 229.0368957519531 114.6600341796875 C 227.9423522949219 108.3967361450195 227.3874053955078 101.9501342773438 227.3874053955078 95.49928283691406 C 227.3874053955078 89.048583984375 227.9423522949219 82.60213470458984 229.0368957519531 76.33898162841797 C 230.1034545898438 70.23583221435547 231.6947937011719 64.2327880859375 233.7667999267578 58.49663543701172 C 235.8007965087891 52.86553573608398 238.3182067871094 47.43463516235352 241.2490997314453 42.35468292236328 C 244.1513977050781 37.32428359985352 247.4842529296875 32.59423446655273 251.1550445556641 28.29588508605957 C 254.8246002197266 23.99898529052734 258.862060546875 20.09823417663574 263.1552124023438 16.70198440551758 C 267.4879150390625 13.27448463439941 272.1192016601562 10.33083438873291 276.9205627441406 7.952884674072266 C 281.8089599609375 5.531784534454346 286.9241943359375 3.67243480682373 292.1242065429688 2.426434755325317 C 297.4591064453125 1.148134708404541 302.949951171875 0.4999847412109375 308.4443054199219 0.4999847412109375 C 313.9385375976562 0.4999847412109375 319.4292907714844 1.148134708404541 324.7640380859375 2.426434755325317 C 329.9639892578125 3.67243480682373 335.0791625976562 5.531784534454346 339.9674377441406 7.952884674072266 C 344.7687377929688 10.33083438873291 349.3999938964844 13.27448463439941 353.7326049804688 16.70198440551758 C 358.0256958007812 20.09823417663574 362.0631103515625 23.99898529052734 365.7326049804688 28.29588508605957 C 369.4033508300781 32.59423446655273 372.7361450195312 37.32428359985352 375.6384582519531 42.35468292236328 C 378.5692443847656 47.43463516235352 381.0866394042969 52.86553573608398 383.1206359863281 58.49663543701172 C 385.1926574707031 64.2327880859375 386.7839965820312 70.23583221435547 387.8505554199219 76.33898162841797 C 388.9450378417969 82.60213470458984 389.5 89.048583984375 389.5 95.49928283691406 C 389.5 101.9501342773438 388.9450378417969 108.3967361450195 387.8505554199219 114.6600341796875 C 386.7839965820312 120.7632827758789 385.1926574707031 126.7664337158203 383.1206359863281 132.5027313232422 C 381.0866394042969 138.1338806152344 378.5692443847656 143.5648803710938 375.6384582519531 148.6448822021484 C 372.7361450195312 153.6753845214844 369.4033508300781 158.4054870605469 365.7326049804688 162.7038879394531 C 362.0631103515625 167.0008392333984 358.0256958007812 170.9016418457031 353.7326049804688 174.2978820800781 C 349.3999938964844 177.7254333496094 344.7687377929688 180.6690368652344 339.9674377441406 183.0470275878906 C 335.0791625976562 185.4681396484375 329.9639892578125 187.3275299072266 324.7640380859375 188.5735321044922 C 319.4292907714844 189.8518371582031 313.9385375976562 190.4999847412109 308.4443054199219 190.4999847412109 Z M 81.55684661865234 190.4999847412109 C 76.06244659423828 190.4999847412109 70.57160186767578 189.8518371582031 65.23670196533203 188.5735321044922 C 60.03665161132812 187.3275299072266 54.9213981628418 185.4681396484375 50.03300094604492 183.0470275878906 C 45.23165130615234 180.6690368652344 40.60034942626953 177.7254333496094 36.2677001953125 174.2978820800781 C 31.97455024719238 170.9016418457031 27.93709945678711 167.0008392333984 24.26754951477051 162.7038879394531 C 20.59675025939941 158.4054870605469 17.26395034790039 153.6753845214844 14.36165046691895 148.6448822021484 C 11.43074989318848 143.5648803710938 8.913350105285645 138.1338806152344 6.879350185394287 132.5027313232422 C 4.807400226593018 126.7664337158203 3.216000080108643 120.7632827758789 2.149450063705444 114.6600341796875 C 1.054949998855591 108.3967361450195 0.5 101.9501342773438 0.5 95.49928283691406 C 0.5 89.048583984375 1.054949998855591 82.60213470458984 2.149450063705444 76.33898162841797 C 3.216000080108643 70.23583221435547 4.807400226593018 64.2327880859375 6.879350185394287 58.49663543701172 C 8.913350105285645 52.86553573608398 11.43074989318848 47.43458557128906 14.36165046691895 42.35468292236328 C 17.26395034790039 37.32428359985352 20.59675025939941 32.59423446655273 24.26754951477051 28.29588508605957 C 27.93709945678711 23.99898529052734 31.97455024719238 20.09823417663574 36.2677001953125 16.70198440551758 C 40.60034942626953 13.27448463439941 45.23165130615234 10.33083438873291 50.03300094604492 7.952884674072266 C 54.9213981628418 5.531784534454346 60.03665161132812 3.67243480682373 65.23670196533203 2.426434755325317 C 70.57160186767578 1.148134708404541 76.0625 0.4999847412109375 81.55684661865234 0.4999847412109375 C 87.05120086669922 0.4999847412109375 92.54205322265625 1.148134708404541 97.876953125 2.426434755325317 C 103.0769500732422 3.67243480682373 108.1921997070312 5.531784534454346 113.0805969238281 7.952884674072266 C 117.8818969726562 10.33083438873291 122.5132522583008 13.27448463439941 126.8459014892578 16.70198440551758 C 131.1390533447266 20.09823417663574 135.1764526367188 23.99898529052734 138.8460540771484 28.29588508605957 C 142.5167999267578 32.59423446655273 145.8496551513672 37.32428359985352 148.751953125 42.35468292236328 C 151.6828002929688 47.43458557128906 154.2001953125 52.86553573608398 156.2342529296875 58.49663543701172 C 158.3061981201172 64.2327880859375 159.8975982666016 70.23583221435547 160.9641571044922 76.33898162841797 C 162.0586547851562 82.60213470458984 162.6136016845703 89.048583984375 162.6136016845703 95.49928283691406 C 162.6136016845703 101.9501342773438 162.0586547851562 108.3967361450195 160.9641571044922 114.6600341796875 C 159.8975982666016 120.7632827758789 158.3061981201172 126.7664337158203 156.2342529296875 132.5027313232422 C 154.2001953125 138.1338806152344 151.6828002929688 143.5648803710938 148.751953125 148.6448822021484 C 145.8496551513672 153.6753845214844 142.5167999267578 158.4054870605469 138.8460540771484 162.7038879394531 C 135.1764526367188 167.0008392333984 131.1390533447266 170.9016418457031 126.8459014892578 174.2978820800781 C 122.5132522583008 177.7254333496094 117.8818969726562 180.6690368652344 113.0805969238281 183.0470275878906 C 108.1921997070312 185.4681396484375 103.0769500732422 187.3275299072266 97.876953125 188.5735321044922 C 92.54205322265625 189.8518371582031 87.05120086669922 190.4999847412109 81.55684661865234 190.4999847412109 Z" stroke="none"/>
        <path d="M 81.55685424804688 0.9999847412109375 C 76.10165405273438 0.9999847412109375 70.64999389648438 1.643478393554688 65.35321044921875 2.912689208984375 C 60.18960571289062 4.149932861328125 55.10980224609375 5.996490478515625 50.25491333007812 8.40093994140625 C 45.48486328125 10.763427734375 40.88320922851562 13.688232421875 36.57791137695312 17.09408569335938 C 32.31015014648438 20.47023010253906 28.29629516601562 24.34832763671875 24.64773559570312 28.62059020996094 C 20.99679565429688 32.89569091796875 17.6817626953125 37.6005859375 14.79470825195312 42.60458374023438 C 11.8785400390625 47.65904235839844 9.3736572265625 53.06303405761719 7.349609375 58.66648864746094 C 5.287445068359375 64.37553405761719 3.70361328125 70.35038757324219 2.641998291015625 76.42508697509766 C 1.552459716796875 82.65983581542969 1 89.07733154296875 1 95.49928283691406 C 1 101.92138671875 1.552459716796875 108.3390350341797 2.641998291015625 114.5739364624023 C 3.70361328125 120.6487884521484 5.287445068359375 126.6237335205078 7.349609375 132.3328399658203 C 9.3736572265625 137.9363861083984 11.8785400390625 143.3404846191406 14.79470825195312 148.3950347900391 C 17.6817626953125 153.3990325927734 20.99679565429688 158.1039886474609 24.64773559570312 162.3791809082031 C 28.29629516601562 166.6514892578125 32.31015014648438 170.5295867919922 36.57791137695312 173.9057922363281 C 40.88320922851562 177.3116302490234 45.48486328125 180.2364807128906 50.25491333007812 182.5989837646484 C 55.10980224609375 185.0034790039062 60.18960571289062 186.8500366210938 65.35321044921875 188.0872802734375 C 70.64999389648438 189.3564910888672 76.10165405273438 189.9999847412109 81.55685424804688 189.9999847412109 C 87.01199340820312 189.9999847412109 92.46371459960938 189.3564910888672 97.76040649414062 188.0872802734375 C 102.9240417480469 186.8500366210938 108.0038452148438 185.0034790039062 112.8587036132812 182.5989837646484 C 117.6287536621094 180.2364807128906 122.2303466796875 177.3116302490234 126.53564453125 173.9057922363281 C 130.8034057617188 170.5295867919922 134.8173065185547 166.6514892578125 138.4658050537109 162.3791809082031 C 142.1167449951172 158.1039886474609 145.4317932128906 153.3990325927734 148.31884765625 148.3950347900391 C 151.2350463867188 143.3404846191406 153.7399444580078 137.9363861083984 155.7639465332031 132.3328399658203 C 157.8261566162109 126.6237335205078 159.4100036621094 120.6487884521484 160.4716033935547 114.5739364624023 C 161.5611572265625 108.3390350341797 162.1136016845703 101.92138671875 162.1136016845703 95.49928283691406 C 162.1136016845703 89.07733154296875 161.5611572265625 82.65983581542969 160.4716033935547 76.42508697509766 C 159.4100036621094 70.35038757324219 157.8261566162109 64.37553405761719 155.7639465332031 58.66648864746094 C 153.7399444580078 53.06303405761719 151.2350463867188 47.65904235839844 148.31884765625 42.60458374023438 C 145.4317932128906 37.6005859375 142.1167449951172 32.89569091796875 138.4658050537109 28.62059020996094 C 134.8173065185547 24.34832763671875 130.8034057617188 20.47023010253906 126.53564453125 17.09408569335938 C 122.2303466796875 13.688232421875 117.6287536621094 10.763427734375 112.8587036132812 8.40093994140625 C 108.0038452148438 5.996490478515625 102.9240417480469 4.149932861328125 97.76040649414062 2.912689208984375 C 92.46365356445312 1.643478393554688 87.01199340820312 0.9999847412109375 81.55685424804688 0.9999847412109375 M 308.4442443847656 0.9999847412109375 C 302.9891052246094 0.9999847412109375 297.5374450683594 1.643478393554688 292.2406921386719 2.912689208984375 C 287.0770568847656 4.149932861328125 281.997314453125 5.996490478515625 277.1424560546875 8.40093994140625 C 272.3723449707031 10.763427734375 267.770751953125 13.688232421875 263.4653930664062 17.09408569335938 C 259.1976318359375 20.47023010253906 255.1838073730469 24.34832763671875 251.5352478027344 28.62059020996094 C 247.8842926025391 32.89569091796875 244.5692443847656 37.6005859375 241.6822052001953 42.60458374023438 C 238.7660064697266 47.65904235839844 236.2610931396484 53.06303405761719 234.2370452880859 58.66648864746094 C 232.1748504638672 64.37553405761719 230.5910034179688 70.35038757324219 229.5294036865234 76.42508697509766 C 228.4398498535156 82.65983581542969 227.8874053955078 89.07733154296875 227.8874053955078 95.49928283691406 C 227.8874053955078 101.92138671875 228.4398498535156 108.3390350341797 229.5294036865234 114.5739364624023 C 230.5910034179688 120.6487884521484 232.1748504638672 126.6237335205078 234.2370452880859 132.3328399658203 C 236.2610931396484 137.9363861083984 238.7660064697266 143.3404846191406 241.6822052001953 148.3950347900391 C 244.5692443847656 153.3990325927734 247.8842926025391 158.1039886474609 251.5352478027344 162.3791809082031 C 255.1838073730469 166.6514892578125 259.1976318359375 170.5295867919922 263.4653930664062 173.9057922363281 C 267.770751953125 177.3116302490234 272.3723449707031 180.2364807128906 277.1424560546875 182.5989837646484 C 281.9972534179688 185.0034790039062 287.0770568847656 186.8500366210938 292.2406921386719 188.0872802734375 C 297.5374450683594 189.3564910888672 302.9891052246094 189.9999847412109 308.4442443847656 189.9999847412109 C 313.8992919921875 189.9999847412109 319.3508605957031 189.3564910888672 324.6474914550781 188.0872802734375 C 329.81103515625 186.8500366210938 334.8907470703125 185.0034790039062 339.7455444335938 182.5989837646484 C 344.5155639648438 180.2364807128906 349.1170959472656 177.3116302490234 353.42236328125 173.9057922363281 C 357.6900634765625 170.5295867919922 361.7038879394531 166.6514892578125 365.3523864746094 162.3791809082031 C 369.0032958984375 158.1039886474609 372.3182983398438 153.3990325927734 375.2053527832031 148.3950347900391 C 378.1214904785156 143.3404846191406 380.6264038085938 137.9363861083984 382.650390625 132.3328399658203 C 384.7125549316406 126.6237335205078 386.29638671875 120.6487884521484 387.3580017089844 114.5739364624023 C 388.4475402832031 108.3390350341797 389 101.92138671875 389 95.49928283691406 C 389 89.07733154296875 388.4475402832031 82.65988159179688 387.3580017089844 76.42508697509766 C 386.2964477539062 70.35038757324219 384.7125549316406 64.37553405761719 382.650390625 58.66648864746094 C 380.6264038085938 53.06303405761719 378.1214904785156 47.65904235839844 375.2053527832031 42.60458374023438 C 372.3182983398438 37.6005859375 369.0032958984375 32.89569091796875 365.3523864746094 28.62059020996094 C 361.7038879394531 24.34832763671875 357.6900634765625 20.47023010253906 353.42236328125 17.09408569335938 C 349.1170959472656 13.688232421875 344.5155639648438 10.763427734375 339.7455444335938 8.40093994140625 C 334.8907470703125 5.996490478515625 329.81103515625 4.149932861328125 324.6474914550781 2.912689208984375 C 319.3508605957031 1.643478393554688 313.8992919921875 0.9999847412109375 308.4442443847656 0.9999847412109375 M 81.55685424804688 -1.52587890625e-05 C 126.599609375 -1.52587890625e-05 163.1136016845703 42.75672912597656 163.1136016845703 95.49928283691406 C 163.1136016845703 148.2431335449219 126.599609375 190.9999847412109 81.55685424804688 190.9999847412109 C 36.51388549804688 190.9999847412109 0 148.2431335449219 0 95.49928283691406 C 0 42.75672912597656 36.51388549804688 -1.52587890625e-05 81.55685424804688 -1.52587890625e-05 Z M 308.4442443847656 -1.52587890625e-05 C 353.486083984375 -1.52587890625e-05 390 42.75672912597656 390 95.49928283691406 C 390 148.2431335449219 353.486083984375 190.9999847412109 308.4442443847656 190.9999847412109 C 263.4015502929688 190.9999847412109 226.8874053955078 148.2431335449219 226.8874053955078 95.49928283691406 C 226.8874053955078 42.75672912597656 263.4015502929688 -1.52587890625e-05 308.4442443847656 -1.52587890625e-05 Z" stroke="none" fill="#707070"/>
      </g>
    </g>
  </g>
</svg>
